<?xml version="1.0" encoding="UTF-8" standalone="no"?>
<svg
   xmlns:dc="http://purl.org/dc/elements/1.1/"
   xmlns:cc="http://creativecommons.org/ns#"
   xmlns:rdf="http://www.w3.org/1999/02/22-rdf-syntax-ns#"
   xmlns:svg="http://www.w3.org/2000/svg"
   xmlns="http://www.w3.org/2000/svg"
   xmlns:sodipodi="http://sodipodi.sourceforge.net/DTD/sodipodi-0.dtd"
   xmlns:inkscape="http://www.inkscape.org/namespaces/inkscape"
   viewBox="0 0 64 64"
   preserveAspectRatio="xMidYMid meet"
   class="css-1y5supu"
   id="hghddcee"
   version="1.1"
   sodipodi:docname="new_logo.svg"
   width="64"
   height="64"
   inkscape:version="0.92.3 (2405546, 2018-03-11)">
  <metadata
     id="metadata78">
    <rdf:RDF>
      <cc:Work
         rdf:about="">
        <dc:format>image/svg+xml</dc:format>
        <dc:type
           rdf:resource="http://purl.org/dc/dcmitype/StillImage" />
        <dc:title></dc:title>
      </cc:Work>
    </rdf:RDF>
  </metadata>
  <sodipodi:namedview
     pagecolor="#ffffff"
     bordercolor="#666666"
     borderopacity="1"
     objecttolerance="10"
     gridtolerance="10"
     guidetolerance="10"
     inkscape:pageopacity="0"
     inkscape:pageshadow="2"
     inkscape:window-width="1366"
     inkscape:window-height="718"
     id="namedview76"
     showgrid="false"
     inkscape:zoom="7.5"
     inkscape:cx="8.2670645"
     inkscape:cy="28.893838"
     inkscape:window-x="0"
     inkscape:window-y="24"
     inkscape:window-maximized="1"
     inkscape:current-layer="hghddcee" />
  <defs
     id="SvgjsDefs1010">
    <linearGradient
       id="SvgjsLinearGradient1014">
      <stop
         id="SvgjsStop1015"
         stop-color="#b88746"
         offset="0" />
      <stop
         id="SvgjsStop1016"
         stop-color="#fdf5a6"
         offset="1" />
    </linearGradient>
    <linearGradient
       id="SvgjsLinearGradient1017">
      <stop
         id="SvgjsStop1018"
         stop-color="#b88746"
         offset="0" />
      <stop
         id="SvgjsStop1019"
         stop-color="#fdf5a6"
         offset="1" />
    </linearGradient>
  </defs>
  <g
     id="SvgjsG1011"
     featurekey="root"
     style="fill:#000000"
     transform="translate(0,-25)" />
  <g
     id="SvgjsG1012"
     featurekey="symbol1"
     transform="matrix(0.56888889,0,0,0.5804709,3.5555555,2.677585)"
     style="fill:#4a90e2;fill-opacity:1">
    <path
       d="m 95,26.035 c 0,-0.211 -0.113,-0.405 -0.292,-0.508 l -1.938,-1.121 1.938,-1.12 C 94.887,23.182 95,22.988 95,22.777 95,22.567 94.887,22.372 94.708,22.269 L 67.376,6.49 c -0.179,-0.103 -0.404,-0.103 -0.587,0 L 47.465,17.647 c -0.182,0.106 -0.292,0.298 -0.292,0.508 0,0.21 0.11,0.405 0.292,0.508 l 1.939,1.12 -1.939,1.121 c -0.182,0.104 -0.292,0.298 -0.292,0.508 0,0.207 0.11,0.402 0.292,0.508 l 1.936,1.117 -1.936,1.12 c -0.182,0.107 -0.292,0.298 -0.292,0.509 0,0.209 0.11,0.404 0.292,0.508 l 1.939,1.12 -1.939,1.12 c -0.182,0.104 -0.292,0.299 -0.292,0.508 0,0.21 0.11,0.402 0.292,0.509 l 1.936,1.117 -1.936,1.12 c -0.182,0.107 -0.292,0.298 -0.292,0.508 0,0.21 0.11,0.405 0.292,0.508 l 1.939,1.121 -1.939,1.12 c -0.182,0.103 -0.292,0.297 -0.292,0.508 0,0.211 0.11,0.402 0.292,0.508 l 1.939,1.12 -1.939,1.118 c -0.182,0.106 -0.292,0.3 -0.292,0.508 0,0.209 0.11,0.405 0.292,0.508 l 1.939,1.12 -0.562,0.323 -2.55,-1.471 c -0.183,-0.107 -0.405,-0.107 -0.587,0 L 26.38,49.322 c -0.182,0.106 -0.295,0.301 -0.295,0.508 0,0.21 0.113,0.405 0.295,0.508 l 1.939,1.119 -1.939,1.121 c -0.182,0.104 -0.295,0.298 -0.295,0.508 0,0.21 0.113,0.405 0.295,0.509 l 1.939,1.119 -1.939,1.12 c -0.182,0.104 -0.295,0.299 -0.295,0.509 0,0.207 0.113,0.401 0.295,0.509 l 1.939,1.117 -1.939,1.119 c -0.182,0.104 -0.295,0.299 -0.295,0.509 0,0.21 0.113,0.404 0.295,0.509 l 1.939,1.12 -0.559,0.324 -2.557,-1.475 c -0.179,-0.104 -0.405,-0.104 -0.587,0 L 5.292,71.231 C 5.109,71.336 5,71.53 5,71.741 c 0,0.209 0.109,0.403 0.292,0.508 l 1.939,1.12 -1.939,1.12 C 5.109,74.593 5,74.787 5,74.997 c 0,0.207 0.109,0.401 0.292,0.509 l 1.936,1.116 -1.936,1.12 C 5.109,77.849 5,78.044 5,78.251 c 0,0.21 0.109,0.404 0.292,0.508 l 27.332,15.779 c 0.091,0.054 0.191,0.079 0.292,0.079 0.104,0 0.204,-0.025 0.295,-0.079 L 52.536,83.381 c 0.182,-0.104 0.292,-0.298 0.292,-0.508 0,-0.211 -0.11,-0.401 -0.292,-0.509 l -1.936,-1.117 0.559,-0.323 2.551,1.472 c 0.091,0.053 0.191,0.079 0.295,0.079 0.1,0 0.2,-0.026 0.291,-0.079 L 73.62,71.238 c 0.182,-0.104 0.295,-0.298 0.295,-0.508 0,-0.211 -0.113,-0.401 -0.295,-0.509 l -1.937,-1.119 0.559,-0.324 2.555,1.476 c 0.087,0.053 0.191,0.078 0.292,0.078 0.1,0 0.204,-0.025 0.295,-0.078 L 94.708,59.096 C 94.887,58.992 95,58.798 95,58.588 95,58.377 94.887,58.186 94.708,58.079 l -1.937,-1.116 1.937,-1.121 C 94.887,55.735 95,55.54 95,55.334 95,55.123 94.887,54.929 94.708,54.825 l -1.938,-1.12 1.938,-1.12 C 94.887,52.481 95,52.287 95,52.076 95,51.867 94.887,51.672 94.708,51.568 l -1.938,-1.12 1.938,-1.121 C 94.887,49.225 95,49.03 95,48.82 95,48.613 94.887,48.419 94.708,48.312 l -1.938,-1.117 1.938,-1.12 C 94.887,45.97 95,45.776 95,45.566 c 0,-0.21 -0.113,-0.405 -0.292,-0.509 l -1.938,-1.12 1.938,-1.12 C 94.887,42.714 95,42.519 95,42.31 95,42.1 94.887,41.908 94.708,41.802 L 92.77,40.685 94.708,39.564 C 94.887,39.458 95,39.266 95,39.056 95,38.845 94.887,38.651 94.708,38.548 l -1.938,-1.121 1.938,-1.12 C 94.887,36.204 95,36.009 95,35.798 95,35.588 94.887,35.397 94.708,35.29 l -1.937,-1.117 1.937,-1.12 C 94.887,32.946 95,32.755 95,32.544 95,32.335 94.887,32.139 94.708,32.036 l -1.938,-1.12 1.938,-1.12 C 94.887,29.692 95,29.498 95,29.289 95,29.079 94.887,28.887 94.708,28.78 l -1.937,-1.117 1.937,-1.12 C 94.887,26.437 95,26.241 95,26.035 Z M 75.089,69.067 73.416,68.1 73.62,67.984 c 0.182,-0.106 0.295,-0.301 0.295,-0.509 0,-0.209 -0.113,-0.404 -0.295,-0.508 l -1.939,-1.12 0.559,-0.323 2.558,1.475 c 0.087,0.05 0.191,0.079 0.292,0.079 0.1,0 0.204,-0.029 0.295,-0.079 l 16.212,-9.36 1.645,0.949 z m -4.02,-0.966 -0.562,0.324 -0.587,0.339 -0.587,0.342 -15.33,8.851 -1.676,-0.967 0.207,-0.118 c 0.182,-0.104 0.292,-0.299 0.292,-0.509 0,-0.21 -0.11,-0.401 -0.292,-0.508 l -20.783,-12 -0.59,-0.339 -0.583,-0.339 -1.647,-0.95 0.562,-0.323 1.644,0.95 0.587,0.336 0.59,0.343 21.396,12.352 c 0.091,0.054 0.191,0.079 0.295,0.079 0.1,0 0.2,-0.025 0.291,-0.079 l 13.392,-7.731 0.59,-0.342 0.587,-0.338 0.559,-0.324 0.587,-0.339 0.496,-0.285 1.646,0.95 -0.495,0.286 z M 54.004,81.21 52.331,80.243 52.535,80.128 c 0.182,-0.107 0.292,-0.302 0.292,-0.509 0,-0.21 -0.11,-0.404 -0.292,-0.509 l -1.939,-1.12 0.558,-0.323 2.555,1.475 c 0.091,0.051 0.191,0.079 0.295,0.079 0.1,0 0.2,-0.028 0.291,-0.079 l 16.213,-9.359 1.644,0.948 z M 49.422,80.566 48.836,80.908 48.249,81.244 32.916,90.098 9.581,76.622 8.994,76.284 8.405,75.945 6.792,75.012 6.76,74.997 l 1.647,-0.95 1.642,0.947 0.589,0.342 0.586,0.34 21.399,12.352 c 0.091,0.054 0.191,0.078 0.292,0.078 0.104,0 0.204,-0.024 0.295,-0.078 l 13.392,-7.73 0.586,-0.339 0.59,-0.339 0.558,-0.323 0.587,-0.342 0.496,-0.286 1.647,0.951 -0.496,0.285 -0.586,0.339 z M 32.916,93.353 6.76,78.251 8.404,77.304 32.623,91.284 c 0.091,0.051 0.191,0.079 0.292,0.079 0.104,0 0.204,-0.028 0.295,-0.079 l 16.212,-9.359 1.644,0.948 z M 6.76,71.741 l 18.151,-10.48 1.675,0.967 0.583,0.339 2.234,1.289 0.583,0.336 0.59,0.342 20.488,11.829 -0.499,0.288 -0.586,0.339 -0.562,0.323 -0.587,0.339 -0.496,0.286 -0.091,0.053 -0.495,0.285 -0.587,0.339 -0.562,0.324 -0.587,0.341 -0.586,0.336 L 32.913,86.843 12.398,74.997 11.811,74.658 11.221,74.316 9.58,73.369 8.994,73.03 8.405,72.691 6.792,71.758 Z m 21.085,-12.143 1.644,-0.951 1.647,0.951 0.587,0.339 0.586,0.339 1.648,0.951 0.583,0.339 0.59,0.339 18.579,10.724 c 0.091,0.054 0.191,0.082 0.295,0.082 0.1,0 0.2,-0.028 0.291,-0.082 l 10.574,-6.103 0.587,-0.339 0.587,-0.339 0.562,-0.323 0.587,-0.339 0.495,-0.288 0.091,-0.051 0.499,-0.289 0.584,-0.339 0.562,-0.322 0.587,-0.339 0.499,-0.286 1.644,0.947 -0.498,0.289 -0.587,0.339 -0.562,0.324 -0.584,0.338 -0.499,0.286 -0.091,0.053 -0.496,0.285 -0.586,0.339 -0.562,0.324 -0.583,0.339 -0.59,0.341 -12.51,7.224 -20.522,-11.846 -0.587,-0.339 -0.587,-0.339 -1.644,-0.95 -0.587,-0.339 -0.586,-0.339 -1.616,-0.933 z m 0,-3.254 1.647,-0.951 1.644,0.951 0.587,0.336 0.586,0.339 1.648,0.954 0.586,0.336 0.587,0.338 1.644,0.951 0.587,0.339 0.587,0.339 15.761,9.1 c 0.091,0.053 0.191,0.078 0.295,0.078 0.1,0 0.2,-0.025 0.291,-0.078 l 7.754,-4.478 0.59,-0.34 0.586,-0.339 0.56,-0.322 0.586,-0.339 0.496,-0.286 0.091,-0.053 0.499,-0.289 0.587,-0.339 0.558,-0.323 0.591,-0.339 0.495,-0.285 0.088,-0.054 0.502,-0.288 0.587,-0.339 0.559,-0.323 0.587,-0.339 0.499,-0.286 1.644,0.948 -0.498,0.288 -0.587,0.339 -0.562,0.323 -0.584,0.339 -0.502,0.289 -0.088,0.05 -0.5,0.289 -0.586,0.339 -0.559,0.322 -0.586,0.339 -0.5,0.286 -0.09,0.053 -0.496,0.286 -0.587,0.339 -0.559,0.323 -0.587,0.339 -0.589,0.342 -9.689,5.595 L 36.305,61.227 35.718,60.888 35.131,60.549 33.487,59.598 32.9,59.259 32.313,58.92 30.666,57.97 30.079,57.631 29.493,57.292 27.877,56.359 Z m 0,-3.257 1.647,-0.95 1.647,0.95 0.587,0.339 0.586,0.339 1.645,0.95 0.586,0.336 0.587,0.339 1.647,0.954 0.587,0.336 0.586,0.339 1.645,0.951 0.586,0.339 0.587,0.338 12.94,7.472 c 0.091,0.054 0.191,0.078 0.295,0.078 0.1,0 0.2,-0.024 0.291,-0.078 l 4.937,-2.85 0.586,-0.339 0.587,-0.339 0.558,-0.323 0.587,-0.339 0.5,-0.285 0.088,-0.054 0.499,-0.288 0.586,-0.339 0.562,-0.323 0.586,-0.339 0.496,-0.286 0.091,-0.053 0.499,-0.289 0.587,-0.339 0.558,-0.323 0.588,-0.339 0.498,-0.285 0.088,-0.054 0.502,-0.288 0.587,-0.336 0.559,-0.326 0.587,-0.339 0.496,-0.285 1.646,0.95 -0.495,0.285 -0.587,0.339 -0.562,0.323 -0.587,0.339 -0.499,0.288 -0.088,0.054 -0.499,0.286 -0.586,0.339 -0.562,0.322 -0.583,0.339 -0.503,0.289 -0.087,0.054 -0.499,0.285 -0.587,0.339 -0.559,0.323 -0.587,0.339 -0.498,0.289 -0.091,0.053 -0.496,0.286 -0.587,0.339 -0.559,0.322 -0.587,0.339 -0.591,0.339 -6.87,3.971 -14.882,-8.592 -0.587,-0.339 -0.587,-0.339 -1.644,-0.947 -0.587,-0.339 -0.587,-0.339 -1.647,-0.951 -0.587,-0.338 -0.587,-0.339 -1.644,-0.952 -0.587,-0.338 -0.586,-0.339 -1.616,-0.932 z m 0,-3.256 18.151,-10.477 1.672,0.966 0.587,0.339 2.234,1.29 0.587,0.339 0.586,0.339 1.645,0.947 0.587,0.339 0.587,0.339 1.646,0.951 0.587,0.339 0.588,0.338 1.644,0.949 0.587,0.341 0.587,0.336 12.032,6.947 -0.498,0.289 -0.587,0.339 -0.562,0.322 -0.584,0.339 -0.499,0.286 -0.091,0.054 -0.496,0.285 -0.586,0.339 -0.562,0.326 -0.586,0.336 -0.5,0.288 -0.087,0.054 -0.499,0.285 -0.587,0.339 -0.559,0.323 -0.587,0.339 -0.498,0.288 -0.091,0.054 -0.496,0.286 -0.591,0.339 -0.558,0.326 -0.587,0.335 -0.5,0.289 -0.088,0.054 -0.498,0.285 -0.587,0.339 -0.558,0.323 -0.587,0.339 -0.587,0.339 -4.054,2.341 L 41.942,57.97 41.355,57.631 40.769,57.292 39.124,56.342 38.538,56.003 37.951,55.667 36.304,54.715 35.717,54.377 35.13,54.038 33.486,53.087 32.9,52.748 32.313,52.409 30.666,51.458 30.079,51.119 29.493,50.78 27.877,49.849 Z m 63.164,6.793 -0.587,0.335 -15.333,8.854 -1.676,-0.967 0.207,-0.118 c 0.182,-0.104 0.295,-0.299 0.295,-0.51 0,-0.209 -0.113,-0.404 -0.295,-0.508 l -1.939,-1.12 0.562,-0.323 2.555,1.475 c 0.087,0.054 0.191,0.079 0.292,0.079 0.1,0 0.204,-0.025 0.295,-0.079 l 13.392,-7.731 0.587,-0.339 0.589,-0.338 1.642,-0.951 1.647,0.951 -1.645,0.947 z m -0.003,-3.257 -0.588,0.338 -1.643,0.948 -0.587,0.342 -0.587,0.336 -12.513,7.226 -1.673,-0.967 0.204,-0.115 c 0.182,-0.107 0.295,-0.302 0.295,-0.512 0,-0.207 -0.113,-0.401 -0.295,-0.509 l -1.939,-1.117 0.562,-0.326 2.555,1.475 c 0.087,0.054 0.191,0.081 0.292,0.081 0.1,0 0.204,-0.027 0.295,-0.081 l 10.571,-6.103 0.586,-0.339 0.59,-0.339 1.641,-0.951 0.587,-0.339 0.59,-0.339 1.645,-0.95 1.647,0.95 -1.647,0.952 z m 0,-3.259 -0.588,0.34 -1.646,0.951 -0.587,0.339 -0.587,0.338 -1.643,0.948 -0.588,0.339 -0.587,0.34 -9.691,5.597 -1.673,-0.967 0.204,-0.116 c 0.182,-0.103 0.295,-0.298 0.295,-0.508 0,-0.211 -0.113,-0.405 -0.295,-0.508 l -1.939,-1.12 0.559,-0.324 2.558,1.476 c 0.087,0.053 0.191,0.078 0.292,0.078 0.1,0 0.204,-0.025 0.295,-0.078 l 7.752,-4.479 0.588,-0.339 0.59,-0.339 1.642,-0.947 0.586,-0.339 0.59,-0.339 1.645,-0.95 0.587,-0.339 0.589,-0.339 1.645,-0.951 1.645,0.948 -1.647,0.951 z m 0.003,-3.252 -0.587,0.338 -1.646,0.948 -0.587,0.342 -0.587,0.336 -1.646,0.951 -0.588,0.337 -0.587,0.34 -1.645,0.951 -0.586,0.339 -0.586,0.338 -6.875,3.97 -1.676,-0.966 0.207,-0.12 c 0.182,-0.104 0.295,-0.297 0.295,-0.508 0,-0.207 -0.113,-0.402 -0.295,-0.508 l -12.324,-7.116 -0.587,-0.339 -0.59,-0.34 -1.642,-0.947 -0.586,-0.339 -0.59,-0.339 -1.645,-0.951 -0.587,-0.339 -0.59,-0.338 -1.641,-0.952 -0.59,-0.336 -0.588,-0.341 -1.644,-0.948 0.562,-0.326 1.645,0.951 0.59,0.339 0.587,0.339 1.641,0.947 0.59,0.342 0.586,0.339 1.645,0.947 0.591,0.342 0.587,0.339 1.641,0.948 0.59,0.339 0.587,0.339 12.939,7.47 c 0.087,0.054 0.191,0.078 0.292,0.078 0.1,0 0.204,-0.024 0.295,-0.078 l 4.936,-2.849 0.587,-0.339 0.587,-0.339 1.643,-0.947 0.588,-0.339 0.587,-0.339 1.645,-0.951 0.586,-0.339 0.59,-0.339 1.645,-0.95 0.587,-0.339 0.586,-0.339 1.645,-0.951 1.647,0.951 -1.645,0.948 z m -0.003,-3.257 -0.588,0.339 -1.643,0.952 -0.587,0.338 -0.587,0.339 -1.646,0.948 -0.588,0.339 -0.587,0.339 -1.647,0.95 -0.586,0.339 -0.587,0.338 -1.645,0.951 -0.587,0.337 -0.586,0.34 -4.054,2.341 -12.058,-6.962 -0.59,-0.338 -0.587,-0.339 -1.644,-0.948 -0.587,-0.339 -0.586,-0.34 -1.648,-0.95 -0.587,-0.339 -0.587,-0.339 -1.644,-0.95 -0.587,-0.339 -0.587,-0.339 -1.646,-0.951 -0.587,-0.339 -0.587,-0.339 -1.616,-0.932 -0.028,-0.018 1.645,-0.948 1.645,0.948 0.589,0.341 0.587,0.339 1.645,0.948 0.59,0.343 0.586,0.337 1.642,0.949 0.59,0.339 0.588,0.339 1.644,0.95 0.59,0.339 0.587,0.339 1.641,0.947 0.59,0.342 0.587,0.336 10.122,5.846 c 0.087,0.054 0.191,0.078 0.292,0.078 0.1,0 0.204,-0.024 0.295,-0.078 l 2.114,-1.221 0.591,-0.339 0.586,-0.339 1.645,-0.951 0.587,-0.339 0.587,-0.339 1.643,-0.95 0.588,-0.339 0.59,-0.339 1.644,-0.951 0.587,-0.339 0.587,-0.339 1.645,-0.947 0.587,-0.339 0.589,-0.339 1.645,-0.95 1.645,0.947 -1.647,0.95 z m 0.003,-3.253 -0.587,0.339 -1.646,0.947 -0.587,0.342 -0.587,0.336 -1.645,0.95 -0.586,0.339 -0.587,0.339 -1.648,0.952 -0.586,0.338 -0.586,0.339 -1.648,0.951 -0.587,0.339 -0.586,0.338 -1.645,0.951 -0.587,0.336 -0.587,0.339 -1.235,0.716 -9.24,-5.334 -0.587,-0.339 -0.587,-0.342 -1.645,-0.948 -0.586,-0.339 -0.587,-0.339 -1.647,-0.95 -0.587,-0.339 -0.586,-0.339 -1.645,-0.951 -0.587,-0.339 -0.588,-0.339 -1.646,-0.95 -0.587,-0.34 -0.587,-0.339 -1.646,-0.95 -0.587,-0.336 -0.587,-0.342 -1.616,-0.932 -0.028,-0.016 1.647,-0.95 1.645,0.95 0.586,0.339 0.587,0.339 1.645,0.948 0.59,0.342 0.586,0.339 1.645,0.948 0.591,0.341 0.587,0.339 1.641,0.948 0.59,0.339 0.587,0.339 1.644,0.951 0.59,0.339 0.587,0.339 1.642,0.947 0.59,0.339 7.888,4.556 c 0.087,0.054 0.191,0.079 0.292,0.079 0.053,0 0.106,-0.007 0.16,-0.022 0.047,-0.013 0.091,-0.032 0.135,-0.057 l 0.47,-0.27 1.645,-0.95 0.587,-0.339 0.587,-0.339 1.647,-0.951 0.587,-0.339 0.587,-0.339 1.643,-0.95 0.588,-0.339 0.587,-0.339 1.645,-0.947 0.586,-0.339 0.59,-0.339 1.645,-0.952 0.587,-0.338 0.586,-0.339 1.645,-0.951 1.647,0.951 -1.645,0.947 z m -0.003,-3.258 -0.588,0.339 -1.643,0.951 -0.587,0.339 -0.587,0.339 -1.646,0.947 -0.588,0.339 -0.587,0.339 -1.645,0.951 -0.586,0.339 -0.586,0.339 -1.648,0.95 -0.587,0.339 -0.586,0.339 -1.647,0.952 -0.587,0.338 -0.587,0.339 -1.232,0.712 -9.24,-5.334 -0.587,-0.339 -0.587,-0.339 -1.645,-0.951 -0.59,-0.339 -0.587,-0.339 -1.644,-0.947 -0.587,-0.339 -0.586,-0.339 -1.648,-0.951 -0.587,-0.339 -0.587,-0.339 -1.644,-0.951 -0.587,-0.338 -0.59,-0.339 -1.644,-0.951 -0.587,-0.34 -0.587,-0.337 -1.616,-0.933 -0.028,-0.019 1.645,-0.947 1.645,0.947 0.589,0.342 0.587,0.339 1.645,0.948 0.587,0.339 0.586,0.339 1.645,0.95 0.59,0.339 0.588,0.339 1.644,0.951 0.59,0.339 0.587,0.339 1.641,0.948 0.59,0.341 0.587,0.336 1.645,0.951 0.59,0.339 7.888,4.557 c 0.087,0.05 0.191,0.078 0.292,0.078 0.053,0 0.106,-0.009 0.16,-0.022 0.047,-0.015 0.091,-0.034 0.135,-0.055 l 0.47,-0.271 1.645,-0.95 0.591,-0.339 0.586,-0.339 1.645,-0.95 0.587,-0.339 0.587,-0.339 1.643,-0.952 0.588,-0.338 0.59,-0.339 1.644,-0.951 0.587,-0.339 0.587,-0.339 1.645,-0.948 0.587,-0.339 0.589,-0.339 1.645,-0.95 1.645,0.947 -1.647,0.952 z m 0.003,-3.254 -0.587,0.336 -1.646,0.951 -0.587,0.342 -0.587,0.335 -1.645,0.952 -0.586,0.338 -0.587,0.339 -1.648,0.951 -0.586,0.339 -0.586,0.339 -1.645,0.95 -0.587,0.34 -0.588,0.339 -1.646,0.95 -0.587,0.336 -0.587,0.339 -1.235,0.715 -9.24,-5.333 L 65.262,37.353 64.675,37.01 63.03,36.063 62.444,35.724 61.857,35.385 60.21,34.434 59.623,34.096 59.037,33.757 57.392,32.806 56.805,32.466 56.214,32.129 54.57,31.177 53.983,30.838 53.396,30.499 51.75,29.549 51.163,29.21 50.576,28.87 48.96,27.939 l -0.028,-0.016 1.647,-0.951 1.642,0.948 0.589,0.342 0.587,0.34 1.645,0.947 0.59,0.342 0.586,0.339 1.645,0.947 0.587,0.339 0.588,0.339 1.644,0.951 0.59,0.339 0.587,0.339 1.644,0.95 0.59,0.339 0.587,0.339 1.642,0.948 0.59,0.339 7.888,4.556 c 0.087,0.053 0.191,0.078 0.292,0.078 0.053,0 0.106,-0.005 0.16,-0.022 0.047,-0.012 0.091,-0.03 0.135,-0.056 l 0.47,-0.269 1.645,-0.952 0.587,-0.338 0.587,-0.339 1.647,-0.951 0.587,-0.339 0.587,-0.339 1.643,-0.951 0.588,-0.339 0.587,-0.339 1.645,-0.947 0.586,-0.339 0.59,-0.339 1.645,-0.95 0.587,-0.339 0.589,-0.34 1.642,-0.95 1.647,0.95 -1.645,0.948 z m -0.003,-3.256 -0.588,0.339 -1.643,0.948 -0.587,0.341 -0.587,0.336 -1.646,0.951 -0.588,0.339 -0.587,0.338 -1.645,0.951 -0.585,0.339 -0.586,0.338 -1.648,0.952 -0.587,0.338 -0.586,0.339 -1.645,0.951 -0.587,0.339 -0.587,0.339 -1.235,0.712 -9.24,-5.334 -0.587,-0.338 -0.587,-0.339 -1.645,-0.951 -0.59,-0.34 -0.587,-0.337 -1.643,-0.949 -0.587,-0.339 -0.586,-0.342 -1.648,-0.947 -0.587,-0.339 -0.587,-0.339 -1.646,-0.951 -0.587,-0.339 -0.587,-0.339 -1.644,-0.95 -0.587,-0.339 -0.587,-0.339 -1.616,-0.932 -0.028,-0.018 1.645,-0.949 1.645,0.949 0.589,0.341 0.587,0.339 1.645,0.948 0.587,0.339 0.586,0.338 1.645,0.951 0.59,0.339 0.588,0.34 1.644,0.95 0.586,0.339 0.591,0.339 1.641,0.947 0.59,0.342 0.587,0.336 1.645,0.951 0.59,0.339 7.888,4.556 c 0.087,0.05 0.191,0.079 0.292,0.079 0.053,0 0.106,-0.007 0.157,-0.025 0.047,-0.01 0.094,-0.029 0.138,-0.054 l 0.47,-0.273 1.645,-0.948 0.591,-0.339 0.586,-0.339 1.645,-0.95 0.587,-0.339 0.587,-0.339 1.643,-0.95 0.588,-0.339 0.59,-0.34 1.644,-0.95 0.587,-0.339 0.587,-0.339 1.645,-0.947 0.587,-0.339 0.589,-0.339 1.645,-0.952 1.645,0.949 -1.647,0.95 z m 0.003,-3.254 -0.587,0.336 -1.646,0.95 -0.587,0.343 -0.587,0.336 -1.645,0.95 -0.586,0.339 -0.587,0.339 -1.648,0.95 -0.586,0.339 -0.586,0.339 -1.645,0.951 -0.587,0.339 -0.588,0.339 -1.646,0.951 -0.587,0.336 -0.587,0.338 -1.235,0.716 -9.24,-5.335 -0.587,-0.339 -0.587,-0.342 -1.645,-0.947 -0.586,-0.339 -0.591,-0.339 -1.644,-0.951 -0.587,-0.339 -0.586,-0.339 -1.648,-0.95 -0.587,-0.339 -0.587,-0.339 -1.644,-0.95 -0.587,-0.34 -0.587,-0.339 -1.646,-0.951 -0.587,-0.338 -0.587,-0.339 -1.616,-0.932 -0.028,-0.016 1.647,-0.95 1.642,0.947 0.589,0.342 0.587,0.339 1.645,0.947 0.59,0.342 0.586,0.339 1.642,0.949 0.59,0.338 0.588,0.339 1.644,0.951 0.59,0.339 0.587,0.338 1.644,0.951 0.59,0.339 0.587,0.34 1.642,0.947 0.59,0.339 7.888,4.556 c 0.087,0.054 0.191,0.079 0.292,0.079 0.053,0 0.106,-0.007 0.16,-0.022 0.047,-0.013 0.091,-0.032 0.135,-0.057 l 0.47,-0.27 1.645,-0.95 0.587,-0.339 0.587,-0.34 1.647,-0.95 0.587,-0.339 0.587,-0.339 1.643,-0.95 0.588,-0.339 0.59,-0.339 1.642,-0.949 0.586,-0.338 0.59,-0.339 1.645,-0.951 0.587,-0.339 0.589,-0.338 1.642,-0.951 1.647,0.951 -1.645,0.947 z M 48.933,18.156 67.084,7.676 93.24,22.777 l -1.647,0.951 -0.587,0.339 -0.588,0.338 -1.643,0.948 -0.587,0.343 -0.587,0.336 -1.646,0.95 -0.588,0.339 -0.587,0.339 -1.645,0.95 -0.586,0.339 -0.586,0.34 -1.648,0.95 -0.587,0.339 -0.586,0.339 -1.645,0.95 -0.587,0.339 -0.587,0.339 -1.235,0.713 -9.24,-5.334 -0.587,-0.339 -0.587,-0.339 -1.645,-0.95 -0.59,-0.339 -0.587,-0.339 -1.644,-0.95 -0.591,-0.34 -0.586,-0.339 -1.645,-0.948 -0.587,-0.339 -0.587,-0.338 -1.646,-0.951 -0.587,-0.339 -0.587,-0.339 -1.644,-0.951 -0.587,-0.339 -0.587,-0.339 -1.616,-0.931 z"
       id="path72"
       style="fill:#4a90e2;fill-opacity:1"
       inkscape:connector-curvature="0" />
  </g>
</svg>
